<svg width="1106" height="125" viewBox="0 0 1106 125" fill="none" xmlns="http://www.w3.org/2000/svg">
<path d="M794.35 0.000180354C792.504 0.000180354 791.007 1.49618 791.007 3.34284V22.3282C791.007 24.1748 792.504 25.6708 794.35 25.6708H833.492C835.767 25.6708 837.61 27.5148 837.61 29.7882V121.164C837.61 123.011 839.107 124.507 840.952 124.507H865.57C867.416 124.507 868.912 123.011 868.912 121.164V29.7882C868.912 27.5148 870.756 25.6708 873.03 25.6708H912.172C914.019 25.6708 915.515 24.1748 915.515 22.3282V3.34284C915.515 1.49618 914.019 0.000180354 912.172 0.000180354H794.35Z" fill="#231F20"/>
<path d="M1058.6 42.4844V3.34309C1058.6 1.49642 1057.11 0.000424495 1055.26 0.000424495H1030.64C1028.8 0.000424495 1027.3 1.49642 1027.3 3.34309V42.4844C1027.3 44.7591 1025.46 46.6018 1023.18 46.6018H984.038C982.193 46.6018 980.696 48.0991 980.696 49.9444V74.5618C980.696 76.4084 982.193 77.9044 984.038 77.9044H1023.18C1025.46 77.9044 1027.3 79.7484 1027.3 82.0218V121.164C1027.3 123.011 1028.8 124.507 1030.64 124.507H1055.26C1057.11 124.507 1058.6 123.011 1058.6 121.164V82.0218C1058.6 79.7484 1060.45 77.9044 1062.72 77.9044H1101.86C1103.71 77.9044 1105.2 76.4084 1105.2 74.5618V49.9444C1105.2 48.0991 1103.71 46.6018 1101.86 46.6018H1062.72C1060.45 46.6018 1058.6 44.7591 1058.6 42.4844Z" fill="#231F20"/>
<path d="M256.348 46.0908H213.061C210.793 46.0908 208.953 44.2575 208.944 41.9895L208.786 3.32952C208.78 1.48818 207.285 0.000170182 205.445 0.000170182H181.032C179.186 0.000170182 177.689 1.49618 177.689 3.34284V121.166C177.689 123.011 179.186 124.507 181.032 124.507H207.468C209.314 124.507 210.81 123.011 210.81 121.166V82.3002C210.81 80.0255 212.653 78.1828 214.928 78.1828H258.214C260.488 78.1828 262.332 80.0255 262.332 82.3002V121.166C262.332 123.011 263.828 124.507 265.673 124.507H292.109C293.956 124.507 295.452 123.011 295.452 121.166V3.34284C295.452 1.49618 293.956 0.000170182 292.109 0.000170182H263.65C261.8 0.000170182 260.301 1.50551 260.309 3.35618L260.465 41.9562C260.474 44.2375 258.628 46.0908 256.348 46.0908Z" fill="#231F20"/>
<path d="M444.789 44.1933C444.789 32.5919 437.659 25.9399 425.229 25.9399H406.959C404.685 25.9399 402.841 27.7839 402.841 30.0573V58.1119C402.841 60.3866 404.685 62.2306 406.959 62.2306H425.229C437.659 62.2306 444.789 55.6559 444.789 44.1933ZM451.863 82.6853L474.611 119.404C475.99 121.631 474.389 124.507 471.77 124.507H444.113C442.926 124.507 441.829 123.877 441.229 122.853L420.978 88.2493C420.239 86.9866 418.886 86.2106 417.425 86.2106H406.959C404.685 86.2106 402.841 88.0546 402.841 90.3293V121.165C402.841 123.011 401.345 124.507 399.499 124.507H373.715C371.87 124.507 370.374 123.011 370.374 121.165V3.3426C370.374 1.49593 371.87 -7.3959e-05 373.715 -7.3959e-05H430.887C459.086 -7.3959e-05 476.605 16.9346 476.605 44.1933C476.605 60.6706 469.357 73.5359 456.195 80.4199L451.863 82.6853Z" fill="#231F20"/>
<path d="M545.562 124.507H571.998C573.845 124.507 575.341 123.011 575.341 121.164V3.34309C575.341 1.49642 573.845 0.000424495 571.998 0.000424495H545.562C543.717 0.000424495 542.22 1.49642 542.22 3.34309V121.164C542.22 123.011 543.717 124.507 545.562 124.507Z" fill="#231F20"/>
<path d="M653.239 124.507H679.023C680.868 124.507 682.364 123.011 682.364 121.164V82.3618C682.364 80.0871 684.208 78.2431 686.483 78.2431H736.465C738.311 78.2431 739.807 76.7471 739.807 74.9018V55.4284C739.807 53.5831 738.311 52.0857 736.465 52.0857H686.483C684.208 52.0857 682.364 50.2431 682.364 47.9684V29.7884C682.364 27.5138 684.208 25.6711 686.483 25.6711H736.465C738.311 25.6711 739.807 24.1751 739.807 22.3284V3.34309C739.807 1.49642 738.311 0.000424495 736.465 0.000424495H654.023C651.744 0.000424495 649.896 1.84708 649.896 4.12575V121.164C649.896 123.011 651.393 124.507 653.239 124.507Z" fill="#231F20"/>
<path d="M3.34267 0.000180354C1.49733 0.000180354 0 1.49618 0 3.34284V22.3282C0 24.1748 1.49733 25.6708 3.34267 25.6708H42.4853C44.76 25.6708 46.6027 27.5148 46.6027 29.7882V121.164C46.6027 123.011 48.1 124.507 49.9453 124.507H74.5627C76.4093 124.507 77.9053 123.011 77.9053 121.164V29.7882C77.9053 27.5148 79.7493 25.6708 82.0227 25.6708H121.165C123.012 25.6708 124.508 24.1748 124.508 22.3282V3.34284C124.508 1.49618 123.012 0.000180354 121.165 0.000180354H3.34267Z" fill="#231F20"/>
</svg>
