<?xml version="1.0" encoding="utf-8"?>
<!-- Generator: Adobe Illustrator 16.0.0, SVG Export Plug-In . SVG Version: 6.00 Build 0)  -->
<!DOCTYPE svg PUBLIC "-//W3C//DTD SVG 1.1//EN" "http://www.w3.org/Graphics/SVG/1.1/DTD/svg11.dtd">
<svg version="1.1" id="Layer_1" xmlns="http://www.w3.org/2000/svg" xmlns:xlink="http://www.w3.org/1999/xlink" x="0px" y="0px"
	 width="291.099px" height="19.057px" viewBox="0 0 291.099 19.057" enable-background="new 0 0 291.099 19.057"
	 xml:space="preserve">
<g>
	<defs>
		<rect id="SVGID_1_" y="0" width="291.099" height="19.057"/>
	</defs>
	<clipPath id="SVGID_2_">
		<use xlink:href="#SVGID_1_"  overflow="visible"/>
	</clipPath>
	<path clip-path="url(#SVGID_2_)" fill="#FFFFFF" d="M117.005,0.179h-15.113c-0.237,0-0.429,0.192-0.429,0.429v2.435
		c0,0.237,0.192,0.429,0.429,0.429h5.021c0.292,0,0.528,0.236,0.528,0.528v11.721c0,0.237,0.192,0.429,0.429,0.429h3.157
		c0.237,0,0.429-0.191,0.429-0.429V4c0-0.292,0.237-0.528,0.528-0.528h5.021c0.237,0,0.429-0.192,0.429-0.429V0.608
		C117.434,0.371,117.242,0.179,117.005,0.179"/>
	<path clip-path="url(#SVGID_2_)" fill="#FFFFFF" d="M139.889,6.157h-5.021c-0.291,0-0.528-0.237-0.528-0.528V0.608
		c0-0.237-0.192-0.429-0.429-0.429h-3.158c-0.237,0-0.428,0.192-0.428,0.429v5.021c0,0.291-0.237,0.528-0.528,0.528h-5.021
		c-0.237,0-0.429,0.192-0.429,0.429v3.157c0,0.237,0.192,0.429,0.429,0.429h5.021c0.291,0,0.528,0.236,0.528,0.528v5.021
		c0,0.237,0.191,0.429,0.428,0.429h3.158c0.237,0,0.429-0.191,0.429-0.429V10.7c0-0.292,0.237-0.528,0.528-0.528h5.021
		c0.237,0,0.429-0.192,0.429-0.429V6.586C140.318,6.349,140.126,6.157,139.889,6.157"/>
	<path clip-path="url(#SVGID_2_)" fill="#FFFFFF" d="M37.469,0.179h-3.65c-0.238,0-0.43,0.193-0.429,0.431l0.02,4.951
		c0.001,0.292-0.236,0.53-0.528,0.53h-5.553c-0.291,0-0.527-0.235-0.528-0.526l-0.02-4.959c-0.001-0.236-0.193-0.427-0.429-0.427
		h-3.131c-0.237,0-0.429,0.192-0.429,0.429v15.113c0,0.237,0.192,0.429,0.429,0.429h3.391c0.236,0,0.428-0.191,0.428-0.429v-4.985
		c0-0.292,0.237-0.528,0.529-0.528h5.552c0.292,0,0.528,0.236,0.528,0.528v4.985c0,0.237,0.192,0.429,0.429,0.429h3.391
		c0.236,0,0.429-0.191,0.429-0.429V0.608C37.898,0.371,37.705,0.179,37.469,0.179"/>
	<path clip-path="url(#SVGID_2_)" fill="#FFFFFF" d="M61.134,5.848c0-3.497-2.247-5.669-5.864-5.669h-7.334
		c-0.237,0-0.429,0.191-0.429,0.428v15.114c0,0.235,0.192,0.429,0.429,0.429h3.308c0.237,0,0.428-0.193,0.428-0.429v-3.956
		c0-0.291,0.237-0.528,0.528-0.528h1.343c0.188,0,0.361,0.099,0.456,0.261l2.597,4.439c0.077,0.132,0.218,0.213,0.37,0.213h3.548
		c0.336,0,0.541-0.369,0.364-0.656l-2.917-4.709l0.555-0.291C60.205,9.611,61.134,7.961,61.134,5.848 M54.544,8.161h-2.344
		c-0.291,0-0.528-0.236-0.528-0.528V4.034c0-0.291,0.237-0.528,0.528-0.528h2.344c1.594,0,2.509,0.853,2.509,2.342
		C57.054,7.318,56.139,8.161,54.544,8.161"/>
	<path clip-path="url(#SVGID_2_)" fill="#FFFFFF" d="M73.371,0.179h-3.391c-0.237,0-0.429,0.192-0.429,0.429v15.113
		c0,0.237,0.192,0.429,0.429,0.429h3.391c0.237,0,0.429-0.191,0.429-0.429V0.608C73.8,0.371,73.608,0.179,73.371,0.179"/>
	<path clip-path="url(#SVGID_2_)" fill="#FFFFFF" d="M94.467,0.179H83.892c-0.292,0-0.529,0.237-0.529,0.529v15.013
		c0,0.237,0.192,0.429,0.429,0.429h3.307c0.237,0,0.429-0.191,0.429-0.429v-4.977c0-0.292,0.236-0.528,0.528-0.528h6.411
		c0.237,0,0.429-0.192,0.429-0.429V7.289c0-0.237-0.192-0.429-0.429-0.429h-6.411c-0.292,0-0.528-0.236-0.528-0.528V4
		c0-0.292,0.236-0.528,0.528-0.528h6.411c0.237,0,0.429-0.192,0.429-0.429V0.608C94.896,0.371,94.704,0.179,94.467,0.179"/>
	<path clip-path="url(#SVGID_2_)" fill="#FFFFFF" d="M15.542,0.179H0.429C0.192,0.179,0,0.371,0,0.608v2.435
		C0,3.28,0.192,3.472,0.429,3.472H5.45c0.291,0,0.528,0.236,0.528,0.528v11.721c0,0.237,0.191,0.429,0.428,0.429h3.158
		c0.237,0,0.429-0.191,0.429-0.429V4c0-0.292,0.237-0.528,0.528-0.528h5.021c0.237,0,0.429-0.192,0.429-0.429V0.608
		C15.971,0.371,15.779,0.179,15.542,0.179"/>
	<path clip-path="url(#SVGID_2_)" fill="#9C9CA1" d="M162.861,9.071c0.521,0.662,0.78,1.5,0.78,2.511
		c0,1.353-0.509,2.394-1.526,3.124c-1.021,0.729-2.505,1.094-4.453,1.094h-7.453V0.179h7.007c1.784,0,3.165,0.357,4.139,1.071
		c0.975,0.714,1.462,1.704,1.462,2.968c0,0.818-0.189,1.525-0.568,2.12c-0.38,0.595-0.89,1.049-1.529,1.361
		C161.626,7.952,162.341,8.409,162.861,9.071 M152.44,1.986v4.999h4.574c1.146,0,2.026-0.212,2.644-0.636
		c0.617-0.424,0.927-1.045,0.927-1.863s-0.31-1.44-0.927-1.864c-0.617-0.424-1.498-0.636-2.644-0.636H152.44z M160.429,13.366
		c0.64-0.416,0.959-1.07,0.959-1.963c0-1.742-1.271-2.611-3.814-2.611h-5.133v5.199h5.133
		C158.837,13.991,159.788,13.784,160.429,13.366"/>
	<path clip-path="url(#SVGID_2_)" fill="#9C9CA1" d="M172.824,14.938c-1.265-0.691-2.258-1.646-2.979-2.867
		c-0.723-1.218-1.083-2.58-1.083-4.083c0-1.502,0.36-2.863,1.083-4.083c0.721-1.22,1.714-2.176,2.979-2.868
		C174.088,0.347,175.509,0,177.086,0c1.562,0,2.976,0.346,4.24,1.037c1.264,0.692,2.253,1.644,2.968,2.857
		c0.714,1.212,1.07,2.577,1.07,4.094c0,1.518-0.356,2.883-1.07,4.095c-0.715,1.212-1.704,2.163-2.968,2.854
		c-1.265,0.693-2.679,1.039-4.24,1.039C175.509,15.978,174.088,15.632,172.824,14.938 M180.177,13.21
		c0.915-0.521,1.637-1.237,2.164-2.152c0.528-0.915,0.792-1.938,0.792-3.069c0-1.13-0.264-2.154-0.792-3.068
		c-0.527-0.915-1.249-1.632-2.164-2.153s-1.945-0.782-3.091-0.782s-2.184,0.261-3.113,0.782s-1.658,1.238-2.186,2.153
		c-0.529,0.914-0.793,1.938-0.793,3.068c0,1.131,0.264,2.154,0.793,3.069c0.527,0.915,1.256,1.631,2.186,2.152
		c0.93,0.521,1.968,0.78,3.113,0.78S179.262,13.73,180.177,13.21"/>
	<path clip-path="url(#SVGID_2_)" fill="#9C9CA1" d="M193.199,14.192c-1.161-1.19-1.741-2.9-1.741-5.132V0.179h2.231V8.97
		c0,3.348,1.466,5.021,4.396,5.021c1.428,0,2.521-0.413,3.279-1.238c0.76-0.826,1.139-2.086,1.139-3.783V0.179h2.164V9.06
		c0,2.246-0.579,3.96-1.739,5.144c-1.162,1.182-2.782,1.772-4.865,1.772S194.359,15.382,193.199,14.192"/>
	<polygon clip-path="url(#SVGID_2_)" fill="#9C9CA1" points="215.291,2.12 209.938,2.12 209.938,0.179 222.856,0.179 222.856,2.12
		217.5,2.12 217.5,15.799 215.291,15.799 	"/>
	<rect x="228.167" y="0.179" clip-path="url(#SVGID_2_)" fill="#9C9CA1" width="2.23" height="15.621"/>
	<path clip-path="url(#SVGID_2_)" fill="#9C9CA1" d="M254.051,17.228c-0.506,0.595-1.094,1.048-1.763,1.359
		c-0.669,0.313-1.392,0.47-2.164,0.47c-0.982,0-1.901-0.233-2.756-0.703c-0.856-0.47-1.834-1.269-2.936-2.398
		c-1.472-0.075-2.8-0.468-3.982-1.183c-1.183-0.714-2.104-1.662-2.767-2.846c-0.662-1.182-0.993-2.495-0.993-3.938
		c0-1.502,0.36-2.863,1.083-4.083c0.721-1.22,1.714-2.176,2.979-2.868C242.016,0.346,243.437,0,245.014,0
		c1.562,0,2.976,0.346,4.239,1.037c1.265,0.692,2.255,1.645,2.969,2.857c0.713,1.212,1.07,2.577,1.07,4.094
		c0,1.28-0.257,2.455-0.77,3.526c-0.513,1.07-1.235,1.972-2.165,2.699c-0.93,0.73-1.997,1.236-3.201,1.519
		c0.521,0.551,1.022,0.948,1.506,1.192c0.482,0.245,0.978,0.368,1.483,0.368c1.101,0,2.054-0.445,2.856-1.338L254.051,17.228z
		 M239.714,11.058c0.527,0.915,1.257,1.632,2.188,2.151c0.929,0.522,1.966,0.782,3.111,0.782c1.13,0,2.157-0.26,3.079-0.782
		c0.922-0.52,1.648-1.236,2.176-2.151c0.528-0.916,0.792-1.938,0.792-3.069c0-1.13-0.264-2.153-0.792-3.068
		c-0.527-0.914-1.254-1.632-2.176-2.153s-1.949-0.781-3.079-0.781c-1.146,0-2.183,0.26-3.111,0.781
		c-0.932,0.521-1.661,1.239-2.188,2.153c-0.528,0.915-0.792,1.938-0.792,3.068C238.922,9.12,239.186,10.142,239.714,11.058"/>
	<path clip-path="url(#SVGID_2_)" fill="#9C9CA1" d="M261.02,14.192c-1.16-1.19-1.74-2.9-1.74-5.132V0.179h2.231V8.97
		c0,3.348,1.465,5.021,4.396,5.021c1.429,0,2.521-0.413,3.28-1.238c0.758-0.826,1.138-2.086,1.138-3.783V0.179h2.165V9.06
		c0,2.246-0.58,3.96-1.74,5.144c-1.161,1.182-2.782,1.772-4.865,1.772C263.802,15.977,262.18,15.382,261.02,14.192"/>
	<polygon clip-path="url(#SVGID_2_)" fill="#9C9CA1" points="291.1,13.857 291.1,15.799 279.763,15.799 279.763,0.179
		290.787,0.179 290.787,2.12 281.996,2.12 281.996,6.918 289.828,6.918 289.828,8.815 281.996,8.815 281.996,13.857 	"/>
</g>
</svg>
